<mxfile host="app.diagrams.net" modified="2022-06-02T03:09:05.740Z" agent="5.0 (X11; Linux x86_64) AppleWebKit/537.36 (KHTML, like Gecko) Chrome/101.0.4951.64 Safari/537.36" etag="kseasNzJkc9swkzY4SG_" version="18.0.8" type="github">
  <diagram id="C5RBs43oDa-KdzZeNtuy" name="Page-1">
    <mxGraphModel dx="1350" dy="773" grid="1" gridSize="10" guides="1" tooltips="1" connect="1" arrows="1" fold="1" page="1" pageScale="1" pageWidth="827" pageHeight="1169" math="0" shadow="0">
      <root>
        <mxCell id="WIyWlLk6GJQsqaUBKTNV-0" />
        <mxCell id="WIyWlLk6GJQsqaUBKTNV-1" parent="WIyWlLk6GJQsqaUBKTNV-0" />
        <mxCell id="pghOMtpiLglkwRpyQouD-2" value="" style="edgeStyle=orthogonalEdgeStyle;rounded=0;orthogonalLoop=1;jettySize=auto;html=1;entryX=0.5;entryY=0;entryDx=0;entryDy=0;" edge="1" parent="WIyWlLk6GJQsqaUBKTNV-1" source="pghOMtpiLglkwRpyQouD-0" target="pghOMtpiLglkwRpyQouD-3">
          <mxGeometry relative="1" as="geometry" />
        </mxCell>
        <mxCell id="pghOMtpiLglkwRpyQouD-0" value="配置wifi SSID" style="rounded=1;whiteSpace=wrap;html=1;" vertex="1" parent="WIyWlLk6GJQsqaUBKTNV-1">
          <mxGeometry x="200" y="80" width="120" height="60" as="geometry" />
        </mxCell>
        <mxCell id="pghOMtpiLglkwRpyQouD-7" style="edgeStyle=orthogonalEdgeStyle;rounded=0;orthogonalLoop=1;jettySize=auto;html=1;entryX=0.5;entryY=0;entryDx=0;entryDy=0;" edge="1" parent="WIyWlLk6GJQsqaUBKTNV-1" target="pghOMtpiLglkwRpyQouD-6">
          <mxGeometry relative="1" as="geometry">
            <mxPoint x="260" y="440" as="sourcePoint" />
          </mxGeometry>
        </mxCell>
        <mxCell id="pghOMtpiLglkwRpyQouD-11" value="" style="edgeStyle=orthogonalEdgeStyle;rounded=0;orthogonalLoop=1;jettySize=auto;html=1;" edge="1" parent="WIyWlLk6GJQsqaUBKTNV-1" source="pghOMtpiLglkwRpyQouD-1" target="pghOMtpiLglkwRpyQouD-10">
          <mxGeometry relative="1" as="geometry" />
        </mxCell>
        <mxCell id="pghOMtpiLglkwRpyQouD-1" value="配置wifi的静态ip地址" style="rounded=1;whiteSpace=wrap;html=1;" vertex="1" parent="WIyWlLk6GJQsqaUBKTNV-1">
          <mxGeometry x="200" y="300" width="120" height="60" as="geometry" />
        </mxCell>
        <mxCell id="pghOMtpiLglkwRpyQouD-5" value="" style="edgeStyle=orthogonalEdgeStyle;rounded=0;orthogonalLoop=1;jettySize=auto;html=1;" edge="1" parent="WIyWlLk6GJQsqaUBKTNV-1" source="pghOMtpiLglkwRpyQouD-3" target="pghOMtpiLglkwRpyQouD-1">
          <mxGeometry relative="1" as="geometry" />
        </mxCell>
        <mxCell id="pghOMtpiLglkwRpyQouD-3" value="根据设备号和wifi的MAC地址，形成设备ip列表" style="rounded=1;whiteSpace=wrap;html=1;" vertex="1" parent="WIyWlLk6GJQsqaUBKTNV-1">
          <mxGeometry x="200" y="190" width="120" height="60" as="geometry" />
        </mxCell>
        <mxCell id="pghOMtpiLglkwRpyQouD-6" value="验证网段，网络是否可用" style="rounded=1;whiteSpace=wrap;html=1;" vertex="1" parent="WIyWlLk6GJQsqaUBKTNV-1">
          <mxGeometry x="200" y="480" width="120" height="60" as="geometry" />
        </mxCell>
        <mxCell id="pghOMtpiLglkwRpyQouD-17" style="edgeStyle=orthogonalEdgeStyle;rounded=0;orthogonalLoop=1;jettySize=auto;html=1;entryX=0.5;entryY=0;entryDx=0;entryDy=0;" edge="1" parent="WIyWlLk6GJQsqaUBKTNV-1" source="pghOMtpiLglkwRpyQouD-8" target="pghOMtpiLglkwRpyQouD-9">
          <mxGeometry relative="1" as="geometry" />
        </mxCell>
        <mxCell id="pghOMtpiLglkwRpyQouD-8" value="设备状态" style="rounded=1;whiteSpace=wrap;html=1;" vertex="1" parent="WIyWlLk6GJQsqaUBKTNV-1">
          <mxGeometry x="530" y="130" width="120" height="60" as="geometry" />
        </mxCell>
        <mxCell id="pghOMtpiLglkwRpyQouD-18" style="edgeStyle=orthogonalEdgeStyle;rounded=0;orthogonalLoop=1;jettySize=auto;html=1;exitX=0.5;exitY=1;exitDx=0;exitDy=0;" edge="1" parent="WIyWlLk6GJQsqaUBKTNV-1" source="pghOMtpiLglkwRpyQouD-9" target="pghOMtpiLglkwRpyQouD-15">
          <mxGeometry relative="1" as="geometry" />
        </mxCell>
        <mxCell id="pghOMtpiLglkwRpyQouD-9" value="急停状态" style="rounded=1;whiteSpace=wrap;html=1;" vertex="1" parent="WIyWlLk6GJQsqaUBKTNV-1">
          <mxGeometry x="530" y="240" width="120" height="60" as="geometry" />
        </mxCell>
        <mxCell id="pghOMtpiLglkwRpyQouD-10" value="http传输相关ip地址或配置命令" style="rounded=1;whiteSpace=wrap;html=1;" vertex="1" parent="WIyWlLk6GJQsqaUBKTNV-1">
          <mxGeometry x="200" y="390" width="120" height="60" as="geometry" />
        </mxCell>
        <mxCell id="pghOMtpiLglkwRpyQouD-19" style="edgeStyle=orthogonalEdgeStyle;rounded=0;orthogonalLoop=1;jettySize=auto;html=1;exitX=0.5;exitY=1;exitDx=0;exitDy=0;entryX=0.5;entryY=0;entryDx=0;entryDy=0;" edge="1" parent="WIyWlLk6GJQsqaUBKTNV-1" source="pghOMtpiLglkwRpyQouD-15" target="pghOMtpiLglkwRpyQouD-16">
          <mxGeometry relative="1" as="geometry" />
        </mxCell>
        <mxCell id="pghOMtpiLglkwRpyQouD-15" value="传感器状态" style="rounded=1;whiteSpace=wrap;html=1;" vertex="1" parent="WIyWlLk6GJQsqaUBKTNV-1">
          <mxGeometry x="530" y="360" width="120" height="60" as="geometry" />
        </mxCell>
        <mxCell id="pghOMtpiLglkwRpyQouD-16" value="电机/驱动器/舵机状态&lt;br&gt;车的速度，加速度等" style="rounded=1;whiteSpace=wrap;html=1;" vertex="1" parent="WIyWlLk6GJQsqaUBKTNV-1">
          <mxGeometry x="530" y="450" width="130" height="80" as="geometry" />
        </mxCell>
      </root>
    </mxGraphModel>
  </diagram>
</mxfile>
